<svg xmlns="http://www.w3.org/2000/svg" xmlns:xlink="http://www.w3.org/1999/xlink" width="770" height="1557.99"><rect width="770" height="1557.99" rx="5" ry="5" class="a"/><svg y="0%" x="0%"><circle cx="20" cy="20" r="6" fill="#ff5f58"/><circle cx="40" cy="20" r="6" fill="#ffbd2e"/><circle cx="60" cy="20" r="6" fill="#18c132"/></svg><svg height="1497.99" viewBox="0 0 73 149.799" width="730" x="15" xmlns="http://www.w3.org/2000/svg" xmlns:xlink="http://www.w3.org/1999/xlink" y="50"><style>.a{fill:#282d35}.g,.h{fill:#b9c0cb;white-space:pre}.h{fill:#dbab79;font-weight:700}.i,.j,.k,.l{fill:#66c2cd;white-space:pre}.j,.k,.l{fill:#a8cc8c}.k,.l{fill:#444}.l{fill:#f92672}.m,.n,.o,.p,.q,.r{fill:#f8f8f2;white-space:pre}.n,.o,.p,.q,.r{fill:#66d9ef}.o,.p,.q,.r{fill:#a6e22e}.p,.q,.r{fill:#be84ff}.q,.r{fill:#e6db74}.r{fill:#fd971f}</style><g font-family="Monaco,Consolas,Menlo,'Bitstream Vera Sans Mono','Powerline Symbols',monospace" font-size="1.67"><defs><symbol id="a"><path fill="transparent" d="M0 0h73v70H0z"/></symbol></defs><path class="a" d="M0 0h73v149.799H0z"/><svg width="73"><svg><use xlink:href="#a"/><text y="1.67" class="g">$</text><text x="2.004" y="1.67" class="g">cargo</text><text x="8.016" y="1.67" class="g">run</text><text x="12.024" y="1.67" class="g">--example</text><text x="22.044" y="1.67" class="g">table</text><text x="27.054" y="6.012" class="h">Movie</text><text x="61.122" y="6.012" class="h">IMDb</text><text x="66.132" y="6.012" class="h">Rating</text><text x="14.028" y="8.183" class="i">The</text><text x="18.036" y="8.183" class="i">Shawshank</text><text x="28.056" y="8.183" class="i">Redemption</text><text x="39.078" y="8.183" class="i">(1994)</text><text x="65.13" y="8.183" class="j">9.2</text><text x="20.04" y="10.354" class="i">The</text><text x="24.048" y="10.354" class="i">Godfather</text><text x="34.068" y="10.354" class="i">(1972)</text><text x="65.13" y="10.354" class="j">9.1</text><text x="15.03" y="12.525" class="i">The</text><text x="19.038" y="12.525" class="i">Godfather:</text><text x="30.06" y="12.525" class="i">Part</text><text x="35.07" y="12.525" class="i">II</text><text x="38.076" y="12.525" class="i">(1974)</text><text x="65.13" y="12.525" class="j">9.0</text><text x="19.038" y="14.696" class="i">The</text><text x="23.046" y="14.696" class="i">Dark</text><text x="28.056" y="14.696" class="i">Knight</text><text x="35.07" y="14.696" class="i">(2008)</text><text x="65.13" y="14.696" class="j">9.0</text><text x="20.04" y="16.867" class="i">12</text><text x="23.046" y="16.867" class="i">Angry</text><text x="29.058" y="16.867" class="i">Men</text><text x="33.066" y="16.867" class="i">(2008)</text><text x="65.13" y="16.867" class="j">8.9</text><text y="21.209" class="g">$</text><text x="2.004" y="21.209" class="g">cat</text><text x="6.012" y="21.209" class="g">examples/table.rs</text><text x="3.006" y="25.551" class="k">1</text><text x="5.01" y="25.551" class="l">extern</text><text x="12.024" y="25.551" class="l">crate</text><text x="18.036" y="25.551" class="m">modern_terminal;</text><text x="3.006" y="27.722" class="k">2</text><text x="3.006" y="29.893" class="k">3</text><text x="5.01" y="29.893" class="l">use</text><text x="9.018" y="29.893" class="m">modern_terminal::{</text><text x="3.006" y="32.064" class="k">4</text><text x="9.018" y="32.064" class="m">components::{</text><text x="3.006" y="34.235" class="k">5</text><text x="13.026" y="34.235" class="m">table::{Size,</text><text x="27.054" y="34.235" class="m">Table},</text><text x="3.006" y="36.406" class="k">6</text><text x="13.026" y="36.406" class="m">text::{Text,</text><text x="26.052" y="36.406" class="m">TextAlignment},</text><text x="3.006" y="38.577" class="k">7</text><text x="9.018" y="38.577" class="m">},</text><text x="3.006" y="40.748" class="k">8</text><text x="9.018" y="40.748" class="m">core::{console::Console,</text><text x="34.068" y="40.748" class="m">style::Style},</text><text x="3.006" y="42.919" class="k">9</text><text x="5.01" y="42.919" class="m">};</text><text x="2.004" y="45.09" class="k">10</text><text x="2.004" y="47.261" class="k">11</text><text x="5.01" y="47.261" class="n">fn</text><text x="8.016" y="47.261" class="o">main</text><text x="12.024" y="47.261" class="m">()</text><text x="15.03" y="47.261" class="m">-&gt;</text><text x="18.036" y="47.261" class="m">std::io::</text><text x="27.054" y="47.261" class="o">Result</text><text x="33.066" y="47.261" class="m">&lt;()&gt;</text><text x="38.076" y="47.261" class="m">{</text><text x="2.004" y="49.432" class="k">12</text><text x="9.018" y="49.432" class="n">let</text><text x="13.026" y="49.432" class="l">mut</text><text x="17.034" y="49.432" class="m">writer</text><text x="24.048" y="49.432" class="l">=</text><text x="26.052" y="49.432" class="m">std::io::stdout();</text><text x="2.004" y="51.603" class="k">13</text><text x="9.018" y="51.603" class="n">let</text><text x="13.026" y="51.603" class="l">mut</text><text x="17.034" y="51.603" class="m">console</text><text x="25.05" y="51.603" class="l">=</text><text x="27.054" y="51.603" class="m">Console::from_fd(</text><text x="44.088" y="51.603" class="l">&amp;mut</text><text x="49.098" y="51.603" class="m">writer);</text><text x="2.004" y="53.774" class="k">14</text><text x="2.004" y="55.945" class="k">15</text><text x="9.018" y="55.945" class="n">let</text><text x="13.026" y="55.945" class="m">component</text><text x="23.046" y="55.945" class="l">=</text><text x="25.05" y="55.945" class="m">Table</text><text x="31.062" y="55.945" class="m">{</text><text x="2.004" y="58.116" class="k">16</text><text x="13.026" y="58.116" class="m">column_sizes:</text><text x="27.054" y="58.116" class="m">vec![Size::Weight(</text><text x="45.09" y="58.116" class="p">1.0</text><text x="48.096" y="58.116" class="m">),</text><text x="51.102" y="58.116" class="m">Size::Cells(</text><text x="63.126" y="58.116" class="p">13</text><text x="65.13" y="58.116" class="m">)],</text><text x="2.004" y="60.287" class="k">17</text><text x="13.026" y="60.287" class="m">rows:</text><text x="27.054" y="60.287" class="m">vec![</text><text x="2.004" y="62.458" class="k">18</text><text x="17.034" y="62.458" class="m">vec![</text><text x="22.044" y="62.458" class="n">header</text><text x="28.056" y="62.458" class="m">(</text><text x="29.058" y="62.458" class="q">&quot;Movie&quot;</text><text x="36.072" y="62.458" class="m">),</text><text x="39.078" y="62.458" class="n">header</text><text x="45.09" y="62.458" class="m">(</text><text x="46.092" y="62.458" class="q">&quot;IMDb</text><text x="52.104" y="62.458" class="q">Rating&quot;</text><text x="59.118" y="62.458" class="m">)],</text><text x="2.004" y="64.629" class="k">19</text><text x="17.034" y="64.629" class="m">vec![</text><text x="22.044" y="64.629" class="n">movie</text><text x="27.054" y="64.629" class="m">(</text><text x="28.056" y="64.629" class="q">&quot;The</text><text x="33.066" y="64.629" class="q">Shawshank</text><text x="43.086" y="64.629" class="q">Redemption</text><text x="54.108" y="64.629" class="q">(1994)&quot;</text><text x="61.122" y="64.629" class="m">),</text><text x="64.128" y="64.629" class="n">rating</text><text x="70.14" y="64.629" class="m">(</text><text x="71.142" y="64.629" class="q">&quot;9</text><text x="5.01" y="66.8" class="q">.2&quot;</text><text x="8.016" y="66.8" class="m">)],</text><text x="2.004" y="68.971" class="k">20</text><text x="17.034" y="68.971" class="m">vec![</text><text x="22.044" y="68.971" class="n">movie</text><text x="27.054" y="68.971" class="m">(</text><text x="28.056" y="68.971" class="q">&quot;The</text><text x="33.066" y="68.971" class="q">Godfather</text><text x="43.086" y="68.971" class="q">(1972)&quot;</text><text x="50.1" y="68.971" class="m">),</text><text x="53.106" y="68.971" class="n">rating</text><text x="59.118" y="68.971" class="m">(</text><text x="60.12" y="68.971" class="q">&quot;9.1&quot;</text><text x="65.13" y="68.971" class="m">)],</text><text x="2.004" y="71.142" class="k">21</text><text x="17.034" y="71.142" class="m">vec![</text><text x="22.044" y="71.142" class="n">movie</text><text x="27.054" y="71.142" class="m">(</text><text x="28.056" y="71.142" class="q">&quot;The</text><text x="33.066" y="71.142" class="q">Godfather:</text><text x="44.088" y="71.142" class="q">Part</text><text x="49.098" y="71.142" class="q">II</text><text x="52.104" y="71.142" class="q">(1974)&quot;</text><text x="59.118" y="71.142" class="m">),</text><text x="62.124" y="71.142" class="n">rating</text><text x="68.136" y="71.142" class="m">(</text><text x="69.138" y="71.142" class="q">&quot;9.0</text><text x="5.01" y="73.313" class="q">&quot;</text><text x="6.012" y="73.313" class="m">)],</text><text x="2.004" y="75.484" class="k">22</text><text x="17.034" y="75.484" class="m">vec![</text><text x="22.044" y="75.484" class="n">movie</text><text x="27.054" y="75.484" class="m">(</text><text x="28.056" y="75.484" class="q">&quot;The</text><text x="33.066" y="75.484" class="q">Dark</text><text x="38.076" y="75.484" class="q">Knight</text><text x="45.09" y="75.484" class="q">(2008)&quot;</text><text x="52.104" y="75.484" class="m">),</text><text x="55.11" y="75.484" class="n">rating</text><text x="61.122" y="75.484" class="m">(</text><text x="62.124" y="75.484" class="q">&quot;9.0&quot;</text><text x="67.134" y="75.484" class="m">)],</text><text x="2.004" y="77.655" class="k">23</text><text x="17.034" y="77.655" class="m">vec![</text><text x="22.044" y="77.655" class="n">movie</text><text x="27.054" y="77.655" class="m">(</text><text x="28.056" y="77.655" class="q">&quot;12</text><text x="32.064" y="77.655" class="q">Angry</text><text x="38.076" y="77.655" class="q">Men</text><text x="42.084" y="77.655" class="q">(2008)&quot;</text><text x="49.098" y="77.655" class="m">),</text><text x="52.104" y="77.655" class="n">rating</text><text x="58.116" y="77.655" class="m">(</text><text x="59.118" y="77.655" class="q">&quot;8.9&quot;</text><text x="64.128" y="77.655" class="m">)],</text><text x="2.004" y="79.826" class="k">24</text><text x="13.026" y="79.826" class="m">],</text><text x="2.004" y="81.997" class="k">25</text><text x="9.018" y="81.997" class="m">};</text><text x="2.004" y="84.168" class="k">26</text><text x="2.004" y="86.339" class="k">27</text><text x="9.018" y="86.339" class="m">console.</text><text x="17.034" y="86.339" class="n">render</text><text x="23.046" y="86.339" class="m">(</text><text x="24.048" y="86.339" class="l">&amp;</text><text x="25.05" y="86.339" class="m">component)</text><text x="35.07" y="86.339" class="l">?</text><text x="36.072" y="86.339" class="m">;</text><text x="2.004" y="88.51" class="k">28</text><text x="2.004" y="90.681" class="k">29</text><text x="9.018" y="90.681" class="o">Ok</text><text x="11.022" y="90.681" class="m">(())</text><text x="2.004" y="92.852" class="k">30</text><text x="5.01" y="92.852" class="m">}</text><text x="2.004" y="95.023" class="k">31</text><text x="2.004" y="97.194" class="k">32</text><text x="5.01" y="97.194" class="n">fn</text><text x="8.016" y="97.194" class="o">header</text><text x="14.028" y="97.194" class="m">(</text><text x="15.03" y="97.194" class="r">text</text><text x="19.038" y="97.194" class="m">:</text><text x="21.042" y="97.194" class="l">&amp;</text><text x="22.044" y="97.194" class="n">str</text><text x="25.05" y="97.194" class="m">)</text><text x="27.054" y="97.194" class="m">-&gt;</text><text x="30.06" y="97.194" class="o">Box</text><text x="33.066" y="97.194" class="m">&lt;Text&gt;</text><text x="40.08" y="97.194" class="m">{</text><text x="2.004" y="99.365" class="k">33</text><text x="9.018" y="99.365" class="o">Box</text><text x="12.024" y="99.365" class="m">::new(Text</text><text x="23.046" y="99.365" class="m">{</text><text x="2.004" y="101.536" class="k">34</text><text x="13.026" y="101.536" class="m">align:</text><text x="21.042" y="101.536" class="m">TextAlignment::Center,</text><text x="2.004" y="103.707" class="k">35</text><text x="13.026" y="103.707" class="m">text:</text><text x="21.042" y="103.707" class="o">String</text><text x="27.054" y="103.707" class="m">::from(text),</text><text x="2.004" y="105.878" class="k">36</text><text x="13.026" y="105.878" class="m">styles:</text><text x="21.042" y="105.878" class="m">vec![Style::Bold,</text><text x="39.078" y="105.878" class="m">Style::Foreground(</text><text x="57.114" y="105.878" class="q">&quot;yellow&quot;</text><text x="65.13" y="105.878" class="m">.</text><text x="66.132" y="105.878" class="n">to_stri</text><text x="5.01" y="108.049" class="n">ng</text><text x="7.014" y="108.049" class="m">())],</text><text x="2.004" y="110.22" class="k">37</text><text x="9.018" y="110.22" class="m">})</text><text x="2.004" y="112.391" class="k">38</text><text x="5.01" y="112.391" class="m">}</text><text x="2.004" y="114.562" class="k">39</text><text x="2.004" y="116.733" class="k">40</text><text x="5.01" y="116.733" class="n">fn</text><text x="8.016" y="116.733" class="o">movie</text><text x="13.026" y="116.733" class="m">(</text><text x="14.028" y="116.733" class="r">text</text><text x="18.036" y="116.733" class="m">:</text><text x="20.04" y="116.733" class="l">&amp;</text><text x="21.042" y="116.733" class="n">str</text><text x="24.048" y="116.733" class="m">)</text><text x="26.052" y="116.733" class="m">-&gt;</text><text x="29.058" y="116.733" class="o">Box</text><text x="32.064" y="116.733" class="m">&lt;Text&gt;</text><text x="39.078" y="116.733" class="m">{</text><text x="2.004" y="118.904" class="k">41</text><text x="9.018" y="118.904" class="o">Box</text><text x="12.024" y="118.904" class="m">::new(Text</text><text x="23.046" y="118.904" class="m">{</text><text x="2.004" y="121.075" class="k">42</text><text x="13.026" y="121.075" class="m">align:</text><text x="21.042" y="121.075" class="m">TextAlignment::Center,</text><text x="2.004" y="123.246" class="k">43</text><text x="13.026" y="123.246" class="m">text:</text><text x="21.042" y="123.246" class="o">String</text><text x="27.054" y="123.246" class="m">::from(text),</text><text x="2.004" y="125.417" class="k">44</text><text x="13.026" y="125.417" class="m">styles:</text><text x="21.042" y="125.417" class="m">vec![Style::Foreground(</text><text x="44.088" y="125.417" class="q">&quot;cyan&quot;</text><text x="50.1" y="125.417" class="m">.</text><text x="51.102" y="125.417" class="n">to_string</text><text x="60.12" y="125.417" class="m">())],</text><text x="2.004" y="127.588" class="k">45</text><text x="9.018" y="127.588" class="m">})</text><text x="2.004" y="129.759" class="k">46</text><text x="5.01" y="129.759" class="m">}</text><text x="2.004" y="131.93" class="k">47</text><text x="2.004" y="134.101" class="k">48</text><text x="5.01" y="134.101" class="n">fn</text><text x="8.016" y="134.101" class="o">rating</text><text x="14.028" y="134.101" class="m">(</text><text x="15.03" y="134.101" class="r">text</text><text x="19.038" y="134.101" class="m">:</text><text x="21.042" y="134.101" class="l">&amp;</text><text x="22.044" y="134.101" class="n">str</text><text x="25.05" y="134.101" class="m">)</text><text x="27.054" y="134.101" class="m">-&gt;</text><text x="30.06" y="134.101" class="o">Box</text><text x="33.066" y="134.101" class="m">&lt;Text&gt;</text><text x="40.08" y="134.101" class="m">{</text><text x="2.004" y="136.272" class="k">49</text><text x="9.018" y="136.272" class="o">Box</text><text x="12.024" y="136.272" class="m">::new(Text</text><text x="23.046" y="136.272" class="m">{</text><text x="2.004" y="138.443" class="k">50</text><text x="13.026" y="138.443" class="m">align:</text><text x="21.042" y="138.443" class="m">TextAlignment::Center,</text><text x="2.004" y="140.614" class="k">51</text><text x="13.026" y="140.614" class="m">text:</text><text x="21.042" y="140.614" class="o">String</text><text x="27.054" y="140.614" class="m">::from(text),</text><text x="2.004" y="142.785" class="k">52</text><text x="13.026" y="142.785" class="m">styles:</text><text x="21.042" y="142.785" class="m">vec![Style::Foreground(</text><text x="44.088" y="142.785" class="q">&quot;bright_green&quot;</text><text x="58.116" y="142.785" class="m">.</text><text x="59.118" y="142.785" class="n">to_string</text><text x="68.136" y="142.785" class="m">())],</text><text x="2.004" y="144.956" class="k">53</text><text x="9.018" y="144.956" class="m">})</text><text x="2.004" y="147.127" class="k">54</text><text x="5.01" y="147.127" class="m">}</text></svg></svg></g></svg></svg>