<svg xmlns="http://www.w3.org/2000/svg" xmlns:xlink="http://www.w3.org/1999/xlink" width="770" height="1427.73"><rect width="770" height="1427.73" rx="5" ry="5" class="a"/><svg y="0%" x="0%"><circle cx="20" cy="20" r="6" fill="#ff5f58"/><circle cx="40" cy="20" r="6" fill="#ffbd2e"/><circle cx="60" cy="20" r="6" fill="#18c132"/></svg><svg height="1367.73" viewBox="0 0 73 136.773" width="730" x="15" xmlns="http://www.w3.org/2000/svg" xmlns:xlink="http://www.w3.org/1999/xlink" y="50"><style>.a{fill:#282d35}.g,.h{fill:#b9c0cb;white-space:pre}.h{fill:#dbab79;font-weight:700}.i,.j,.k,.l{fill:#66c2cd;white-space:pre}.j,.k,.l{fill:#a8cc8c}.k,.l{fill:#444}.l{fill:#f92672}.m,.n,.o,.p,.q,.r{fill:#f8f8f2;white-space:pre}.n,.o,.p,.q,.r{fill:#66d9ef}.o,.p,.q,.r{fill:#a6e22e}.p,.q,.r{fill:#be84ff}.q,.r{fill:#e6db74}.r{fill:#fd971f}</style><g font-family="Monaco,Consolas,Menlo,'Bitstream Vera Sans Mono','Powerline Symbols',monospace" font-size="1.67"><defs><symbol id="a"><path fill="transparent" d="M0 0h73v64H0z"/></symbol></defs><path class="a" d="M0 0h73v136.773H0z"/><svg width="73"><svg><use xlink:href="#a"/><text y="1.67" class="g">$</text><text x="2.004" y="1.67" class="g">cargo</text><text x="8.016" y="1.67" class="g">run</text><text x="12.024" y="1.67" class="g">--example</text><text x="22.044" y="1.67" class="g">table</text><text x="10.02" y="6.012" class="h">Movie</text><text x="26.052" y="6.012" class="h">IMDb</text><text x="31.062" y="6.012" class="h">Rating</text><text y="8.183" class="i">The</text><text x="4.008" y="8.183" class="i">Shawshank</text><text x="14.028" y="8.183" class="i">Redemption</text><text x="30.06" y="8.183" class="j">9.2</text><text y="10.354" class="i">The</text><text x="4.008" y="10.354" class="i">Godfather</text><text x="30.06" y="10.354" class="j">9.1</text><text y="12.525" class="i">The</text><text x="4.008" y="12.525" class="i">Godfather:</text><text x="15.03" y="12.525" class="i">Part</text><text x="20.04" y="12.525" class="i">II</text><text x="30.06" y="12.525" class="j">9.0</text><text y="16.867" class="g">$</text><text x="2.004" y="16.867" class="g">cat</text><text x="6.012" y="16.867" class="g">examples/table.rs</text><text x="3.006" y="21.209" class="k">1</text><text x="5.01" y="21.209" class="l">extern</text><text x="12.024" y="21.209" class="l">crate</text><text x="18.036" y="21.209" class="m">modern_terminal;</text><text x="3.006" y="23.38" class="k">2</text><text x="3.006" y="25.551" class="k">3</text><text x="5.01" y="25.551" class="l">use</text><text x="9.018" y="25.551" class="m">modern_terminal::{</text><text x="3.006" y="27.722" class="k">4</text><text x="9.018" y="27.722" class="m">components::{</text><text x="3.006" y="29.893" class="k">5</text><text x="13.026" y="29.893" class="m">table::{Size,</text><text x="27.054" y="29.893" class="m">Table},</text><text x="3.006" y="32.064" class="k">6</text><text x="13.026" y="32.064" class="m">text::{Text,</text><text x="26.052" y="32.064" class="m">TextAlignment},</text><text x="3.006" y="34.235" class="k">7</text><text x="9.018" y="34.235" class="m">},</text><text x="3.006" y="36.406" class="k">8</text><text x="9.018" y="36.406" class="m">core::{console::Console,</text><text x="34.068" y="36.406" class="m">style::Style},</text><text x="3.006" y="38.577" class="k">9</text><text x="5.01" y="38.577" class="m">};</text><text x="2.004" y="40.748" class="k">10</text><text x="2.004" y="42.919" class="k">11</text><text x="5.01" y="42.919" class="n">fn</text><text x="8.016" y="42.919" class="o">main</text><text x="12.024" y="42.919" class="m">()</text><text x="15.03" y="42.919" class="m">-&gt;</text><text x="18.036" y="42.919" class="m">std::io::</text><text x="27.054" y="42.919" class="o">Result</text><text x="33.066" y="42.919" class="m">&lt;()&gt;</text><text x="38.076" y="42.919" class="m">{</text><text x="2.004" y="45.09" class="k">12</text><text x="9.018" y="45.09" class="n">let</text><text x="13.026" y="45.09" class="l">mut</text><text x="17.034" y="45.09" class="m">writer</text><text x="24.048" y="45.09" class="l">=</text><text x="26.052" y="45.09" class="m">std::io::stdout();</text><text x="2.004" y="47.261" class="k">13</text><text x="9.018" y="47.261" class="n">let</text><text x="13.026" y="47.261" class="l">mut</text><text x="17.034" y="47.261" class="m">console</text><text x="25.05" y="47.261" class="l">=</text><text x="27.054" y="47.261" class="m">Console::from_fd(</text><text x="44.088" y="47.261" class="l">&amp;mut</text><text x="49.098" y="47.261" class="m">writer);</text><text x="2.004" y="49.432" class="k">14</text><text x="2.004" y="51.603" class="k">15</text><text x="9.018" y="51.603" class="n">let</text><text x="13.026" y="51.603" class="m">component</text><text x="23.046" y="51.603" class="l">=</text><text x="25.05" y="51.603" class="m">Table</text><text x="31.062" y="51.603" class="m">{</text><text x="2.004" y="53.774" class="k">16</text><text x="13.026" y="53.774" class="m">column_sizes:</text><text x="27.054" y="53.774" class="m">vec![Size::Cells(</text><text x="44.088" y="53.774" class="p">25</text><text x="46.092" y="53.774" class="m">),</text><text x="49.098" y="53.774" class="m">Size::Cells(</text><text x="61.122" y="53.774" class="p">13</text><text x="63.126" y="53.774" class="m">)],</text><text x="2.004" y="55.945" class="k">17</text><text x="13.026" y="55.945" class="m">rows:</text><text x="27.054" y="55.945" class="m">vec![</text><text x="2.004" y="58.116" class="k">18</text><text x="17.034" y="58.116" class="m">vec![</text><text x="22.044" y="58.116" class="n">header</text><text x="28.056" y="58.116" class="m">(</text><text x="29.058" y="58.116" class="q">&quot;Movie&quot;</text><text x="36.072" y="58.116" class="m">),</text><text x="39.078" y="58.116" class="n">header</text><text x="45.09" y="58.116" class="m">(</text><text x="46.092" y="58.116" class="q">&quot;IMDb</text><text x="52.104" y="58.116" class="q">Rating&quot;</text><text x="59.118" y="58.116" class="m">)],</text><text x="2.004" y="60.287" class="k">19</text><text x="17.034" y="60.287" class="m">vec![</text><text x="22.044" y="60.287" class="n">movie</text><text x="27.054" y="60.287" class="m">(</text><text x="28.056" y="60.287" class="q">&quot;The</text><text x="33.066" y="60.287" class="q">Shawshank</text><text x="43.086" y="60.287" class="q">Redemption&quot;</text><text x="54.108" y="60.287" class="m">),</text><text x="57.114" y="60.287" class="n">rating</text><text x="63.126" y="60.287" class="m">(</text><text x="64.128" y="60.287" class="q">&quot;9.2&quot;</text><text x="69.138" y="60.287" class="m">)],</text><text x="2.004" y="62.458" class="k">20</text><text x="17.034" y="62.458" class="m">vec![</text><text x="22.044" y="62.458" class="n">movie</text><text x="27.054" y="62.458" class="m">(</text><text x="28.056" y="62.458" class="q">&quot;The</text><text x="33.066" y="62.458" class="q">Godfather&quot;</text><text x="43.086" y="62.458" class="m">),</text><text x="46.092" y="62.458" class="n">rating</text><text x="52.104" y="62.458" class="m">(</text><text x="53.106" y="62.458" class="q">&quot;9.1&quot;</text><text x="58.116" y="62.458" class="m">)],</text><text x="2.004" y="64.629" class="k">21</text><text x="17.034" y="64.629" class="m">vec![</text><text x="22.044" y="64.629" class="n">movie</text><text x="27.054" y="64.629" class="m">(</text><text x="28.056" y="64.629" class="q">&quot;The</text><text x="33.066" y="64.629" class="q">Godfather:</text><text x="44.088" y="64.629" class="q">Part</text><text x="49.098" y="64.629" class="q">II&quot;</text><text x="52.104" y="64.629" class="m">),</text><text x="55.11" y="64.629" class="n">rating</text><text x="61.122" y="64.629" class="m">(</text><text x="62.124" y="64.629" class="q">&quot;9.0&quot;</text><text x="67.134" y="64.629" class="m">)],</text><text x="2.004" y="66.8" class="k">22</text><text x="13.026" y="66.8" class="m">],</text><text x="2.004" y="68.971" class="k">23</text><text x="9.018" y="68.971" class="m">};</text><text x="2.004" y="71.142" class="k">24</text><text x="2.004" y="73.313" class="k">25</text><text x="9.018" y="73.313" class="m">console.</text><text x="17.034" y="73.313" class="n">render</text><text x="23.046" y="73.313" class="m">(</text><text x="24.048" y="73.313" class="l">&amp;</text><text x="25.05" y="73.313" class="m">component)</text><text x="35.07" y="73.313" class="l">?</text><text x="36.072" y="73.313" class="m">;</text><text x="2.004" y="75.484" class="k">26</text><text x="2.004" y="77.655" class="k">27</text><text x="9.018" y="77.655" class="o">Ok</text><text x="11.022" y="77.655" class="m">(())</text><text x="2.004" y="79.826" class="k">28</text><text x="5.01" y="79.826" class="m">}</text><text x="2.004" y="81.997" class="k">29</text><text x="2.004" y="84.168" class="k">30</text><text x="5.01" y="84.168" class="n">fn</text><text x="8.016" y="84.168" class="o">header</text><text x="14.028" y="84.168" class="m">(</text><text x="15.03" y="84.168" class="r">text</text><text x="19.038" y="84.168" class="m">:</text><text x="21.042" y="84.168" class="l">&amp;</text><text x="22.044" y="84.168" class="n">str</text><text x="25.05" y="84.168" class="m">)</text><text x="27.054" y="84.168" class="m">-&gt;</text><text x="30.06" y="84.168" class="o">Box</text><text x="33.066" y="84.168" class="m">&lt;Text&gt;</text><text x="40.08" y="84.168" class="m">{</text><text x="2.004" y="86.339" class="k">31</text><text x="9.018" y="86.339" class="o">Box</text><text x="12.024" y="86.339" class="m">::new(Text</text><text x="23.046" y="86.339" class="m">{</text><text x="2.004" y="88.51" class="k">32</text><text x="13.026" y="88.51" class="m">align:</text><text x="21.042" y="88.51" class="m">TextAlignment::Center,</text><text x="2.004" y="90.681" class="k">33</text><text x="13.026" y="90.681" class="m">text:</text><text x="21.042" y="90.681" class="o">String</text><text x="27.054" y="90.681" class="m">::from(text),</text><text x="2.004" y="92.852" class="k">34</text><text x="13.026" y="92.852" class="m">styles:</text><text x="21.042" y="92.852" class="m">vec![Style::Bold,</text><text x="39.078" y="92.852" class="m">Style::Foreground(</text><text x="57.114" y="92.852" class="q">&quot;yellow&quot;</text><text x="65.13" y="92.852" class="m">.</text><text x="66.132" y="92.852" class="n">to_stri</text><text x="5.01" y="95.023" class="n">ng</text><text x="7.014" y="95.023" class="m">())],</text><text x="2.004" y="97.194" class="k">35</text><text x="9.018" y="97.194" class="m">})</text><text x="2.004" y="99.365" class="k">36</text><text x="5.01" y="99.365" class="m">}</text><text x="2.004" y="101.536" class="k">37</text><text x="2.004" y="103.707" class="k">38</text><text x="5.01" y="103.707" class="n">fn</text><text x="8.016" y="103.707" class="o">movie</text><text x="13.026" y="103.707" class="m">(</text><text x="14.028" y="103.707" class="r">text</text><text x="18.036" y="103.707" class="m">:</text><text x="20.04" y="103.707" class="l">&amp;</text><text x="21.042" y="103.707" class="n">str</text><text x="24.048" y="103.707" class="m">)</text><text x="26.052" y="103.707" class="m">-&gt;</text><text x="29.058" y="103.707" class="o">Box</text><text x="32.064" y="103.707" class="m">&lt;Text&gt;</text><text x="39.078" y="103.707" class="m">{</text><text x="2.004" y="105.878" class="k">39</text><text x="9.018" y="105.878" class="o">Box</text><text x="12.024" y="105.878" class="m">::new(Text</text><text x="23.046" y="105.878" class="m">{</text><text x="2.004" y="108.049" class="k">40</text><text x="13.026" y="108.049" class="m">align:</text><text x="21.042" y="108.049" class="m">TextAlignment::Left,</text><text x="2.004" y="110.22" class="k">41</text><text x="13.026" y="110.22" class="m">text:</text><text x="21.042" y="110.22" class="o">String</text><text x="27.054" y="110.22" class="m">::from(text),</text><text x="2.004" y="112.391" class="k">42</text><text x="13.026" y="112.391" class="m">styles:</text><text x="21.042" y="112.391" class="m">vec![Style::Foreground(</text><text x="44.088" y="112.391" class="q">&quot;cyan&quot;</text><text x="50.1" y="112.391" class="m">.</text><text x="51.102" y="112.391" class="n">to_string</text><text x="60.12" y="112.391" class="m">())],</text><text x="2.004" y="114.562" class="k">43</text><text x="9.018" y="114.562" class="m">})</text><text x="2.004" y="116.733" class="k">44</text><text x="5.01" y="116.733" class="m">}</text><text x="2.004" y="118.904" class="k">45</text><text x="2.004" y="121.075" class="k">46</text><text x="5.01" y="121.075" class="n">fn</text><text x="8.016" y="121.075" class="o">rating</text><text x="14.028" y="121.075" class="m">(</text><text x="15.03" y="121.075" class="r">text</text><text x="19.038" y="121.075" class="m">:</text><text x="21.042" y="121.075" class="l">&amp;</text><text x="22.044" y="121.075" class="n">str</text><text x="25.05" y="121.075" class="m">)</text><text x="27.054" y="121.075" class="m">-&gt;</text><text x="30.06" y="121.075" class="o">Box</text><text x="33.066" y="121.075" class="m">&lt;Text&gt;</text><text x="40.08" y="121.075" class="m">{</text><text x="2.004" y="123.246" class="k">47</text><text x="9.018" y="123.246" class="o">Box</text><text x="12.024" y="123.246" class="m">::new(Text</text><text x="23.046" y="123.246" class="m">{</text><text x="2.004" y="125.417" class="k">48</text><text x="13.026" y="125.417" class="m">align:</text><text x="21.042" y="125.417" class="m">TextAlignment::Center,</text><text x="2.004" y="127.588" class="k">49</text><text x="13.026" y="127.588" class="m">text:</text><text x="21.042" y="127.588" class="o">String</text><text x="27.054" y="127.588" class="m">::from(text),</text><text x="2.004" y="129.759" class="k">50</text><text x="13.026" y="129.759" class="m">styles:</text><text x="21.042" y="129.759" class="m">vec![Style::Foreground(</text><text x="44.088" y="129.759" class="q">&quot;bright_green&quot;</text><text x="58.116" y="129.759" class="m">.</text><text x="59.118" y="129.759" class="n">to_string</text><text x="68.136" y="129.759" class="m">())],</text><text x="2.004" y="131.93" class="k">51</text><text x="9.018" y="131.93" class="m">})</text><text x="2.004" y="134.101" class="k">52</text><text x="5.01" y="134.101" class="m">}</text></svg></svg></g></svg></svg>