<svg xmlns="http://www.w3.org/2000/svg" xmlns:xlink="http://www.w3.org/1999/xlink" width="800" height="130.26"><rect width="800" height="130.26" rx="0" ry="0" class="a"/><svg height="130.26" viewBox="0 0 80 13.026" width="800" xmlns="http://www.w3.org/2000/svg" xmlns:xlink="http://www.w3.org/1999/xlink"><style>.a{fill:#282d35}.d,.e,.f{white-space:pre}.d{fill:#dbab79;font-weight:700}.e,.f{fill:#66c2cd}.f{fill:#a8cc8c}</style><g font-family="Monaco,Consolas,Menlo,'Bitstream Vera Sans Mono','Powerline Symbols',monospace" font-size="1.67"><defs><symbol id="a"><path fill="transparent" d="M0 0h80v7H0z"/></symbol></defs><path class="a" d="M0 0h80v13.026H0z"/><svg width="80"><svg><use xlink:href="#a"/><text x="31.062" y="1.67" class="d">Movie</text><text x="68.136" y="1.67" class="d">IMDb</text><text x="73.146" y="1.67" class="d">Rating</text><text x="18.036" y="3.841" class="e">The</text><text x="22.044" y="3.841" class="e">Shawshank</text><text x="32.064" y="3.841" class="e">Redemption</text><text x="43.086" y="3.841" class="e">(1994)</text><text x="72.144" y="3.841" class="f">9.2</text><text x="23.046" y="6.012" class="e">The</text><text x="27.054" y="6.012" class="e">Godfather</text><text x="37.074" y="6.012" class="e">(1972)</text><text x="72.144" y="6.012" class="f">9.1</text><text x="19.038" y="8.183" class="e">The</text><text x="23.046" y="8.183" class="e">Godfather:</text><text x="34.068" y="8.183" class="e">Part</text><text x="39.078" y="8.183" class="e">II</text><text x="42.084" y="8.183" class="e">(1974)</text><text x="72.144" y="8.183" class="f">9.0</text><text x="22.044" y="10.354" class="e">The</text><text x="26.052" y="10.354" class="e">Dark</text><text x="31.062" y="10.354" class="e">Knight</text><text x="38.076" y="10.354" class="e">(2008)</text><text x="72.144" y="10.354" class="f">9.0</text><text x="24.048" y="12.525" class="e">12</text><text x="27.054" y="12.525" class="e">Angry</text><text x="33.066" y="12.525" class="e">Men</text><text x="37.074" y="12.525" class="e">(2008)</text><text x="72.144" y="12.525" class="f">8.9</text></svg></svg></g></svg></svg>