<svg xmlns="http://www.w3.org/2000/svg" xmlns:xlink="http://www.w3.org/1999/xlink" width="800" height="303.94"><rect width="800" height="303.94" rx="0" ry="0" class="a"/><svg height="303.94" viewBox="0 0 80 30.394" width="800" xmlns="http://www.w3.org/2000/svg" xmlns:xlink="http://www.w3.org/1999/xlink"><style>.a{fill:#282d35}.d{fill:#dbab79;font-weight:700;text-decoration:underline;white-space:pre}.h{fill:#b9c0cb}.h,.i,.j{white-space:pre}.i{fill:#66c2cd;font-weight:700}.j{fill:#0ff}</style><g font-family="Monaco,Consolas,Menlo,'Bitstream Vera Sans Mono','Powerline Symbols',monospace" font-size="1.67"><defs><symbol id="a"><path fill="transparent" d="M0 0h80v15H0z"/></symbol></defs><path class="a" d="M0 0h80v30.394H0z"/><svg width="80"><svg><use xlink:href="#a"/><text y="1.67" class="d">TextAlignment::Left</text><path fill="#66c2cd" d="M0 2.171h15v2.171H0z"/><text y="3.841" style="white-space:pre">Background cyan</text><text y="6.012" style="white-space:pre" fill="#b9c0cb" font-weight="700">Bold</text><text y="8.183" class="h">None</text><text x="29.058" y="10.354" class="d">TextAlignment::Center</text><text x="32.064" y="12.525" class="i">Foreground</text><text x="43.086" y="12.525" class="i">cyan</text><text x="30.06" y="14.696" class="j">Foreground</text><text x="41.082" y="14.696" class="j">#00FFFFF</text><text x="27.054" y="16.867" class="j">Foreground</text><text x="38.076" y="16.867" class="j">rgb(0,255,255)</text><text x="60.12" y="19.038" class="d">TextAlignment::Right</text><path fill="#b9c0cb" d="M72.144 19.539h7v2.171h-7z"/><text x="72.144" y="21.209" style="white-space:pre" fill="#282d35">Reverse</text><text x="70.14" y="23.38" style="white-space:pre" fill="#b9c0cb" text-decoration="underline">Underline</text><text x="26.052" y="25.551" class="d">Supported</text><text x="36.072" y="25.551" class="d">in</text><text x="39.078" y="25.551" class="d">some</text><text x="44.088" y="25.551" class="d">terminals</text><text x="22.044" y="27.722" class="h">Blink</text><text x="28.056" y="27.722" class="h">BlinkFast</text><text x="38.076" y="27.722" class="h">Conceal</text><text x="46.092" y="27.722" class="h">Dim</text><text x="50.1" y="27.722" class="h">Encircle</text><text x="19.038" y="29.893" class="h">Frame</text><text x="25.05" y="29.893" class="h">Italic</text><text x="32.064" y="29.893" class="h">Overline</text><text x="41.082" y="29.893" class="h">Strike</text><text x="48.096" y="29.893" class="h">UnderlineMore</text></svg></svg></g></svg></svg>