<svg xmlns="http://www.w3.org/2000/svg" xmlns:xlink="http://www.w3.org/1999/xlink" width="770" height="841.56"><rect width="770" height="841.56" rx="5" ry="5" class="a"/><svg y="0%" x="0%"><circle cx="20" cy="20" r="6" fill="#ff5f58"/><circle cx="40" cy="20" r="6" fill="#ffbd2e"/><circle cx="60" cy="20" r="6" fill="#18c132"/></svg><svg height="781.56" viewBox="0 0 73 78.156" width="730" x="15" xmlns="http://www.w3.org/2000/svg" xmlns:xlink="http://www.w3.org/1999/xlink" y="50"><style>.a{fill:#282d35}.g,.h,.i,.j,.k{fill:#b9c0cb;white-space:pre}.h,.i,.j,.k{fill:#444}.i,.j,.k{fill:#f92672}.j,.k{fill:#f8f8f2}.k{fill:#66d9ef}.l,.m,.o,.p,.q,.r{fill:#a6e22e;white-space:pre}.m,.o,.p,.q,.r{fill:#e6db74}.o,.p,.q,.r{fill:#a8cc8c;font-weight:700}.p,.q,.r{fill:#dbab79}.q,.r{fill:#71bef2}.r{fill:#e88388}</style><g font-family="Monaco,Consolas,Menlo,'Bitstream Vera Sans Mono','Powerline Symbols',monospace" font-size="1.67"><defs><symbol id="a"><path fill="transparent" d="M0 0h73v37H0z"/></symbol></defs><path class="a" d="M0 0h73v78.156H0z"/><svg width="73"><svg><use xlink:href="#a"/><text y="1.67" class="g">$</text><text x="2.004" y="1.67" class="g">cat</text><text x="6.012" y="1.67" class="g">examples/text.rs</text><text x="3.006" y="6.012" class="h">1</text><text x="5.01" y="6.012" class="i">extern</text><text x="12.024" y="6.012" class="i">crate</text><text x="18.036" y="6.012" class="j">lipsum;</text><text x="3.006" y="8.183" class="h">2</text><text x="5.01" y="8.183" class="i">extern</text><text x="12.024" y="8.183" class="i">crate</text><text x="18.036" y="8.183" class="j">modern_terminal;</text><text x="3.006" y="10.354" class="h">3</text><text x="3.006" y="12.525" class="h">4</text><text x="5.01" y="12.525" class="i">use</text><text x="9.018" y="12.525" class="j">lipsum::lipsum;</text><text x="3.006" y="14.696" class="h">5</text><text x="5.01" y="14.696" class="i">use</text><text x="9.018" y="14.696" class="j">modern_terminal::base::console::Console;</text><text x="3.006" y="16.867" class="h">6</text><text x="5.01" y="16.867" class="i">use</text><text x="9.018" y="16.867" class="j">modern_terminal::base::style::Style;</text><text x="3.006" y="19.038" class="h">7</text><text x="5.01" y="19.038" class="i">use</text><text x="9.018" y="19.038" class="j">modern_terminal::components::text::Text;</text><text x="3.006" y="21.209" class="h">8</text><text x="3.006" y="23.38" class="h">9</text><text x="5.01" y="23.38" class="k">fn</text><text x="8.016" y="23.38" class="l">main</text><text x="12.024" y="23.38" class="j">()</text><text x="15.03" y="23.38" class="j">-&gt;</text><text x="18.036" y="23.38" class="j">std::io::</text><text x="27.054" y="23.38" class="l">Result</text><text x="33.066" y="23.38" class="j">&lt;()&gt;</text><text x="38.076" y="23.38" class="j">{</text><text x="2.004" y="25.551" class="h">10</text><text x="9.018" y="25.551" class="k">let</text><text x="13.026" y="25.551" class="i">mut</text><text x="17.034" y="25.551" class="j">writer</text><text x="24.048" y="25.551" class="i">=</text><text x="26.052" y="25.551" class="j">std::io::stdout();</text><text x="2.004" y="27.722" class="h">11</text><text x="9.018" y="27.722" class="k">let</text><text x="13.026" y="27.722" class="i">mut</text><text x="17.034" y="27.722" class="j">console</text><text x="25.05" y="27.722" class="i">=</text><text x="27.054" y="27.722" class="j">Console::from_fd(</text><text x="44.088" y="27.722" class="i">&amp;mut</text><text x="49.098" y="27.722" class="j">writer);</text><text x="2.004" y="29.893" class="h">12</text><text x="2.004" y="32.064" class="h">13</text><text x="9.018" y="32.064" class="i">for</text><text x="13.026" y="32.064" class="j">color</text><text x="19.038" y="32.064" class="i">in</text><text x="22.044" y="32.064" class="j">[</text><text x="23.046" y="32.064" class="m">&quot;green&quot;</text><text x="30.06" y="32.064" class="j">,</text><text x="32.064" y="32.064" class="m">&quot;yellow&quot;</text><text x="40.08" y="32.064" class="j">,</text><text x="42.084" y="32.064" class="m">&quot;blue&quot;</text><text x="48.096" y="32.064" class="j">,</text><text x="50.1" y="32.064" class="m">&quot;red&quot;</text><text x="55.11" y="32.064" class="j">]</text><text x="57.114" y="32.064" class="j">{</text><text x="2.004" y="34.235" class="h">14</text><text x="13.026" y="34.235" class="k">let</text><text x="17.034" y="34.235" class="j">style</text><text x="23.046" y="34.235" class="i">=</text><text x="25.05" y="34.235" class="j">Style::new().</text><text x="38.076" y="34.235" class="k">foreground</text><text x="48.096" y="34.235" class="j">(color).</text><text x="56.112" y="34.235" class="k">bold</text><text x="60.12" y="34.235" class="j">();</text><text x="2.004" y="36.406" class="h">15</text><text x="13.026" y="36.406" class="k">let</text><text x="17.034" y="36.406" class="j">text</text><text x="22.044" y="36.406" class="i">=</text><text x="24.048" y="36.406" class="k">lipsum</text><text x="30.06" y="36.406" class="j">(</text><text x="31.062" y="36.406" style="white-space:pre" fill="#be84ff">16</text><text x="33.066" y="36.406" class="j">);</text><text x="2.004" y="38.577" class="h">16</text><text x="2.004" y="40.748" class="h">17</text><text x="13.026" y="40.748" class="k">let</text><text x="17.034" y="40.748" class="j">component</text><text x="27.054" y="40.748" class="i">=</text><text x="29.058" y="40.748" class="j">Text::new(text,</text><text x="45.09" y="40.748" class="j">style);</text><text x="2.004" y="42.919" class="h">18</text><text x="2.004" y="45.09" class="h">19</text><text x="13.026" y="45.09" class="j">console.</text><text x="21.042" y="45.09" class="k">render</text><text x="27.054" y="45.09" class="j">(</text><text x="28.056" y="45.09" class="i">&amp;</text><text x="29.058" y="45.09" class="j">component)</text><text x="39.078" y="45.09" class="i">?</text><text x="40.08" y="45.09" class="j">;</text><text x="2.004" y="47.261" class="h">20</text><text x="9.018" y="47.261" class="j">}</text><text x="2.004" y="49.432" class="h">21</text><text x="2.004" y="51.603" class="h">22</text><text x="9.018" y="51.603" class="l">Ok</text><text x="11.022" y="51.603" class="j">(())</text><text x="2.004" y="53.774" class="h">23</text><text x="5.01" y="53.774" class="j">}</text><text y="58.116" class="g">$</text><text x="2.004" y="58.116" class="g">cargo</text><text x="8.016" y="58.116" class="g">run</text><text x="12.024" y="58.116" class="g">--example</text><text x="22.044" y="58.116" class="g">text</text><text y="62.458" class="o">Lorem</text><text x="6.012" y="62.458" class="o">ipsum</text><text x="12.024" y="62.458" class="o">dolor</text><text x="18.036" y="62.458" class="o">sit</text><text x="22.044" y="62.458" class="o">amet,</text><text x="28.056" y="62.458" class="o">consectetur</text><text x="40.08" y="62.458" class="o">adipiscing</text><text x="51.102" y="62.458" class="o">elit,</text><text x="57.114" y="62.458" class="o">sed</text><text x="61.122" y="62.458" class="o">do</text><text x="64.128" y="62.458" class="o">eiusmod</text><text y="64.629" class="o">tempor</text><text x="7.014" y="64.629" class="o">incididunt</text><text x="18.036" y="64.629" class="o">ut</text><text x="21.042" y="64.629" class="o">labore</text><text x="28.056" y="64.629" class="o">et.</text><text y="66.8" class="p">Lorem</text><text x="6.012" y="66.8" class="p">ipsum</text><text x="12.024" y="66.8" class="p">dolor</text><text x="18.036" y="66.8" class="p">sit</text><text x="22.044" y="66.8" class="p">amet,</text><text x="28.056" y="66.8" class="p">consectetur</text><text x="40.08" y="66.8" class="p">adipiscing</text><text x="51.102" y="66.8" class="p">elit,</text><text x="57.114" y="66.8" class="p">sed</text><text x="61.122" y="66.8" class="p">do</text><text x="64.128" y="66.8" class="p">eiusmod</text><text y="68.971" class="p">tempor</text><text x="7.014" y="68.971" class="p">incididunt</text><text x="18.036" y="68.971" class="p">ut</text><text x="21.042" y="68.971" class="p">labore</text><text x="28.056" y="68.971" class="p">et.</text><text y="71.142" class="q">Lorem</text><text x="6.012" y="71.142" class="q">ipsum</text><text x="12.024" y="71.142" class="q">dolor</text><text x="18.036" y="71.142" class="q">sit</text><text x="22.044" y="71.142" class="q">amet,</text><text x="28.056" y="71.142" class="q">consectetur</text><text x="40.08" y="71.142" class="q">adipiscing</text><text x="51.102" y="71.142" class="q">elit,</text><text x="57.114" y="71.142" class="q">sed</text><text x="61.122" y="71.142" class="q">do</text><text x="64.128" y="71.142" class="q">eiusmod</text><text y="73.313" class="q">tempor</text><text x="7.014" y="73.313" class="q">incididunt</text><text x="18.036" y="73.313" class="q">ut</text><text x="21.042" y="73.313" class="q">labore</text><text x="28.056" y="73.313" class="q">et.</text><text y="75.484" class="r">Lorem</text><text x="6.012" y="75.484" class="r">ipsum</text><text x="12.024" y="75.484" class="r">dolor</text><text x="18.036" y="75.484" class="r">sit</text><text x="22.044" y="75.484" class="r">amet,</text><text x="28.056" y="75.484" class="r">consectetur</text><text x="40.08" y="75.484" class="r">adipiscing</text><text x="51.102" y="75.484" class="r">elit,</text><text x="57.114" y="75.484" class="r">sed</text><text x="61.122" y="75.484" class="r">do</text><text x="64.128" y="75.484" class="r">eiusmod</text><text y="77.655" class="r">tempor</text><text x="7.014" y="77.655" class="r">incididunt</text><text x="18.036" y="77.655" class="r">ut</text><text x="21.042" y="77.655" class="r">labore</text><text x="28.056" y="77.655" class="r">et.</text></svg></svg></g></svg></svg>