<svg xmlns="http://www.w3.org/2000/svg" xmlns:xlink="http://www.w3.org/1999/xlink" width="770" height="1015.24"><rect width="770" height="1015.24" rx="5" ry="5" class="a"/><svg y="0%" x="0%"><circle cx="20" cy="20" r="6" fill="#ff5f58"/><circle cx="40" cy="20" r="6" fill="#ffbd2e"/><circle cx="60" cy="20" r="6" fill="#18c132"/></svg><svg height="955.24" viewBox="0 0 73 95.524" width="730" x="15" xmlns="http://www.w3.org/2000/svg" xmlns:xlink="http://www.w3.org/1999/xlink" y="50"><style>.a{fill:#282d35}.g{fill:#b9c0cb;white-space:pre}.h,.i,.j,.k,.l,.m{fill:#444;white-space:pre}.i,.j,.k,.l,.m{fill:#f92672}.j,.k,.l,.m{fill:#f8f8f2}.k,.l,.m{fill:#66d9ef}.l,.m{fill:#a6e22e}.m{fill:#e6db74}.o{fill:#3a3a3a}.p,.q,.r,.s{fill:#a8cc8c;font-weight:700;white-space:pre}.q,.r,.s{fill:#ff0}.r,.s{fill:#71bef2}.s{fill:red}</style><g font-family="Monaco,Consolas,Menlo,'Bitstream Vera Sans Mono','Powerline Symbols',monospace" font-size="1.67"><defs><symbol id="a"><path fill="transparent" d="M0 0h73v45H0z"/></symbol></defs><path class="a" d="M0 0h73v95.524H0z"/><svg width="73"><svg><use xlink:href="#a"/><text y="1.67" class="g">$</text><text x="2.004" y="1.67" class="g">cat</text><text x="6.012" y="1.67" class="g">examples/text.rs</text><text x="3.006" y="6.012" class="h">1</text><text x="5.01" y="6.012" class="i">extern</text><text x="12.024" y="6.012" class="i">crate</text><text x="18.036" y="6.012" class="j">lipsum;</text><text x="3.006" y="8.183" class="h">2</text><text x="5.01" y="8.183" class="i">extern</text><text x="12.024" y="8.183" class="i">crate</text><text x="18.036" y="8.183" class="j">modern_terminal;</text><text x="3.006" y="10.354" class="h">3</text><text x="3.006" y="12.525" class="h">4</text><text x="5.01" y="12.525" class="i">use</text><text x="9.018" y="12.525" class="j">lipsum::lipsum;</text><text x="3.006" y="14.696" class="h">5</text><text x="5.01" y="14.696" class="i">use</text><text x="9.018" y="14.696" class="j">modern_terminal::{</text><text x="3.006" y="16.867" class="h">6</text><text x="9.018" y="16.867" class="j">components::text::{Text,</text><text x="34.068" y="16.867" class="j">TextAlignment},</text><text x="3.006" y="19.038" class="h">7</text><text x="9.018" y="19.038" class="j">core::{console::Console,</text><text x="34.068" y="19.038" class="j">style::Style},</text><text x="3.006" y="21.209" class="h">8</text><text x="5.01" y="21.209" class="j">};</text><text x="3.006" y="23.38" class="h">9</text><text x="2.004" y="25.551" class="h">10</text><text x="5.01" y="25.551" class="k">fn</text><text x="8.016" y="25.551" class="l">main</text><text x="12.024" y="25.551" class="j">()</text><text x="15.03" y="25.551" class="j">-&gt;</text><text x="18.036" y="25.551" class="j">std::io::</text><text x="27.054" y="25.551" class="l">Result</text><text x="33.066" y="25.551" class="j">&lt;()&gt;</text><text x="38.076" y="25.551" class="j">{</text><text x="2.004" y="27.722" class="h">11</text><text x="9.018" y="27.722" class="k">let</text><text x="13.026" y="27.722" class="i">mut</text><text x="17.034" y="27.722" class="j">writer</text><text x="24.048" y="27.722" class="i">=</text><text x="26.052" y="27.722" class="j">std::io::stdout();</text><text x="2.004" y="29.893" class="h">12</text><text x="9.018" y="29.893" class="k">let</text><text x="13.026" y="29.893" class="i">mut</text><text x="17.034" y="29.893" class="j">console</text><text x="25.05" y="29.893" class="i">=</text><text x="27.054" y="29.893" class="j">Console::from_fd(</text><text x="44.088" y="29.893" class="i">&amp;mut</text><text x="49.098" y="29.893" class="j">writer);</text><text x="2.004" y="32.064" class="h">13</text><text x="2.004" y="34.235" class="h">14</text><text x="9.018" y="34.235" class="i">for</text><text x="13.026" y="34.235" class="j">color</text><text x="19.038" y="34.235" class="i">in</text><text x="22.044" y="34.235" class="j">[</text><text x="23.046" y="34.235" class="m">&quot;bright_green&quot;</text><text x="37.074" y="34.235" class="j">,</text><text x="39.078" y="34.235" class="m">&quot;#FFFF00&quot;</text><text x="48.096" y="34.235" class="j">,</text><text x="50.1" y="34.235" class="m">&quot;blue&quot;</text><text x="56.112" y="34.235" class="j">,</text><text x="58.116" y="34.235" class="m">&quot;rgb(255,</text><text x="68.136" y="34.235" class="m">0,</text><text x="71.142" y="34.235" class="m">0)</text><text x="5.01" y="36.406" class="m">&quot;</text><text x="6.012" y="36.406" class="j">]</text><text x="8.016" y="36.406" class="j">{</text><text x="2.004" y="38.577" class="h">15</text><text x="13.026" y="38.577" class="k">let</text><text x="17.034" y="38.577" class="j">component</text><text x="27.054" y="38.577" class="i">=</text><text x="29.058" y="38.577" class="j">Text</text><text x="34.068" y="38.577" class="j">{</text><text x="2.004" y="40.748" class="h">16</text><text x="17.034" y="40.748" class="j">align:</text><text x="25.05" y="40.748" class="j">TextAlignment::Center,</text><text x="2.004" y="42.919" class="h">17</text><text x="17.034" y="42.919" class="j">text:</text><text x="25.05" y="42.919" class="k">lipsum</text><text x="31.062" y="42.919" class="j">(</text><text x="32.064" y="42.919" style="white-space:pre" fill="#be84ff">16</text><text x="34.068" y="42.919" class="j">),</text><text x="2.004" y="45.09" class="h">18</text><text x="17.034" y="45.09" class="j">styles:</text><text x="25.05" y="45.09" class="j">vec![</text><text x="2.004" y="47.261" class="h">19</text><text x="21.042" y="47.261" class="j">Style::Bold,</text><text x="2.004" y="49.432" class="h">20</text><text x="21.042" y="49.432" class="j">Style::Foreground(color.</text><text x="45.09" y="49.432" class="k">to_string</text><text x="54.108" y="49.432" class="j">()),</text><text x="2.004" y="51.603" class="h">21</text><text x="21.042" y="51.603" class="j">Style::Background(</text><text x="39.078" y="51.603" class="m">&quot;grey23&quot;</text><text x="47.094" y="51.603" class="j">.</text><text x="48.096" y="51.603" class="k">to_string</text><text x="57.114" y="51.603" class="j">()),</text><text x="2.004" y="53.774" class="h">22</text><text x="17.034" y="53.774" class="j">],</text><text x="2.004" y="55.945" class="h">23</text><text x="13.026" y="55.945" class="j">};</text><text x="2.004" y="58.116" class="h">24</text><text x="2.004" y="60.287" class="h">25</text><text x="13.026" y="60.287" class="j">console.</text><text x="21.042" y="60.287" class="k">render</text><text x="27.054" y="60.287" class="j">(</text><text x="28.056" y="60.287" class="i">&amp;</text><text x="29.058" y="60.287" class="j">component)</text><text x="39.078" y="60.287" class="i">?</text><text x="40.08" y="60.287" class="j">;</text><text x="2.004" y="62.458" class="h">26</text><text x="9.018" y="62.458" class="j">}</text><text x="2.004" y="64.629" class="h">27</text><text x="2.004" y="66.8" class="h">28</text><text x="9.018" y="66.8" class="l">Ok</text><text x="11.022" y="66.8" class="j">(())</text><text x="2.004" y="68.971" class="h">29</text><text x="5.01" y="68.971" class="j">}</text><text y="73.313" class="g">$</text><text x="2.004" y="73.313" class="g">cargo</text><text x="8.016" y="73.313" class="g">run</text><text x="12.024" y="73.313" class="g">--example</text><text x="22.044" y="73.313" class="g">text</text><path class="o" d="M1.002 75.985h71v2.171h-71z"/><text x="1.002" y="77.655" class="p">Lorem ipsum dolor sit amet, consectetur adipiscing elit, sed do eiusmod</text><path class="o" d="M21.042 78.156h31v2.171h-31z"/><text x="21.042" y="79.826" class="p">tempor incididunt ut labore et.</text><path class="o" d="M1.002 80.327h71v2.171h-71z"/><text x="1.002" y="81.997" class="q">Lorem ipsum dolor sit amet, consectetur adipiscing elit, sed do eiusmod</text><path class="o" d="M21.042 82.498h31v2.171h-31z"/><text x="21.042" y="84.168" class="q">tempor incididunt ut labore et.</text><path class="o" d="M1.002 84.669h71v2.171h-71z"/><text x="1.002" y="86.339" class="r">Lorem ipsum dolor sit amet, consectetur adipiscing elit, sed do eiusmod</text><path class="o" d="M21.042 86.84h31v2.171h-31z"/><text x="21.042" y="88.51" class="r">tempor incididunt ut labore et.</text><path class="o" d="M1.002 89.011h71v2.171h-71z"/><text x="1.002" y="90.681" class="s">Lorem ipsum dolor sit amet, consectetur adipiscing elit, sed do eiusmod</text><path class="o" d="M21.042 91.182h31v2.171h-31z"/><text x="21.042" y="92.852" class="s">tempor incididunt ut labore et.</text></svg></svg></g></svg></svg>