<svg xmlns="http://www.w3.org/2000/svg" xmlns:xlink="http://www.w3.org/1999/xlink" width="840" height="950.11"><rect width="840" height="950.11" rx="5" ry="5" class="a"/><svg y="0%" x="0%"><circle cx="20" cy="20" r="6" fill="#ff5f58"/><circle cx="40" cy="20" r="6" fill="#ffbd2e"/><circle cx="60" cy="20" r="6" fill="#18c132"/></svg><svg height="890.11" viewBox="0 0 80 89.011" width="800" x="15" xmlns="http://www.w3.org/2000/svg" xmlns:xlink="http://www.w3.org/1999/xlink" y="50"><style>.a{fill:#282d35}.g,.h,.i,.j{fill:#b9c0cb;white-space:pre}.h,.i,.j{fill:#ff0;font-weight:700}.i,.j{fill:#71bef2}.j{fill:red}.k,.l,.m,.n,.o,.p{fill:#444;white-space:pre}.l,.m,.n,.o,.p{fill:#f92672}.m,.n,.o,.p{fill:#f8f8f2}.n,.o,.p{fill:#66d9ef}.o,.p{fill:#a6e22e}.p{fill:#e6db74}</style><g font-family="Monaco,Consolas,Menlo,'Bitstream Vera Sans Mono','Powerline Symbols',monospace" font-size="1.67"><defs><symbol id="a"><path fill="transparent" d="M0 0h80v42H0z"/></symbol></defs><path class="a" d="M0 0h80v89.011H0z"/><svg width="80"><svg><use xlink:href="#a"/><text y="1.67" class="g">$</text><text x="2.004" y="1.67" class="g">cargo</text><text x="8.016" y="1.67" class="g">run</text><text x="12.024" y="1.67" class="g">--example</text><text x="22.044" y="1.67" class="g">text</text>0<text x="1.002" y="6.012" class="h">Lorem ipsum dolor sit amet, consectetur adipiscing elit, sed do eiusmod tempor</text>0<text x="28.056" y="8.183" class="h">incididunt ut labore et.</text>0<text x="1.002" y="10.354" class="i">Lorem ipsum dolor sit amet, consectetur adipiscing elit, sed do eiusmod tempor</text>0<text x="28.056" y="12.525" class="i">incididunt ut labore et.</text>0<text x="1.002" y="14.696" class="j">Lorem ipsum dolor sit amet, consectetur adipiscing elit, sed do eiusmod tempor</text>0<text x="28.056" y="16.867" class="j">incididunt ut labore et.</text><text y="21.209" class="g">$</text><text x="2.004" y="21.209" class="g">cat</text><text x="6.012" y="21.209" class="g">examples/text.rs</text><text x="3.006" y="25.551" class="k">1</text><text x="5.01" y="25.551" class="l">extern</text><text x="12.024" y="25.551" class="l">crate</text><text x="18.036" y="25.551" class="m">lipsum;</text><text x="3.006" y="27.722" class="k">2</text><text x="5.01" y="27.722" class="l">extern</text><text x="12.024" y="27.722" class="l">crate</text><text x="18.036" y="27.722" class="m">modern_terminal;</text><text x="3.006" y="29.893" class="k">3</text><text x="3.006" y="32.064" class="k">4</text><text x="5.01" y="32.064" class="l">use</text><text x="9.018" y="32.064" class="m">lipsum::lipsum;</text><text x="3.006" y="34.235" class="k">5</text><text x="5.01" y="34.235" class="l">use</text><text x="9.018" y="34.235" class="m">modern_terminal::{</text><text x="3.006" y="36.406" class="k">6</text><text x="9.018" y="36.406" class="m">components::text::{Text,</text><text x="34.068" y="36.406" class="m">TextAlignment},</text><text x="3.006" y="38.577" class="k">7</text><text x="9.018" y="38.577" class="m">core::{console::Console,</text><text x="34.068" y="38.577" class="m">style::Style},</text><text x="3.006" y="40.748" class="k">8</text><text x="5.01" y="40.748" class="m">};</text><text x="3.006" y="42.919" class="k">9</text><text x="2.004" y="45.09" class="k">10</text><text x="5.01" y="45.09" class="n">fn</text><text x="8.016" y="45.09" class="o">main</text><text x="12.024" y="45.09" class="m">()</text><text x="15.03" y="45.09" class="m">-&gt;</text><text x="18.036" y="45.09" class="m">std::io::</text><text x="27.054" y="45.09" class="o">Result</text><text x="33.066" y="45.09" class="m">&lt;()&gt;</text><text x="38.076" y="45.09" class="m">{</text><text x="2.004" y="47.261" class="k">11</text><text x="9.018" y="47.261" class="n">let</text><text x="13.026" y="47.261" class="l">mut</text><text x="17.034" y="47.261" class="m">writer</text><text x="24.048" y="47.261" class="l">=</text><text x="26.052" y="47.261" class="m">std::io::stdout();</text><text x="2.004" y="49.432" class="k">12</text><text x="9.018" y="49.432" class="n">let</text><text x="13.026" y="49.432" class="l">mut</text><text x="17.034" y="49.432" class="m">console</text><text x="25.05" y="49.432" class="l">=</text><text x="27.054" y="49.432" class="m">Console::from_fd(</text><text x="44.088" y="49.432" class="l">&amp;mut</text><text x="49.098" y="49.432" class="m">writer);</text><text x="2.004" y="51.603" class="k">13</text><text x="2.004" y="53.774" class="k">14</text><text x="9.018" y="53.774" class="l">for</text><text x="13.026" y="53.774" class="m">color</text><text x="19.038" y="53.774" class="l">in</text><text x="22.044" y="53.774" class="m">[</text><text x="23.046" y="53.774" class="p">&quot;#FFFF00&quot;</text><text x="32.064" y="53.774" class="m">,</text><text x="34.068" y="53.774" class="p">&quot;blue&quot;</text><text x="40.08" y="53.774" class="m">,</text><text x="42.084" y="53.774" class="p">&quot;rgb(255,</text><text x="52.104" y="53.774" class="p">0,</text><text x="55.11" y="53.774" class="p">0)&quot;</text><text x="58.116" y="53.774" class="m">]</text><text x="60.12" y="53.774" class="m">{</text><text x="2.004" y="55.945" class="k">15</text><text x="13.026" y="55.945" class="n">let</text><text x="17.034" y="55.945" class="m">component</text><text x="27.054" y="55.945" class="l">=</text><text x="29.058" y="55.945" class="m">Text</text><text x="34.068" y="55.945" class="m">{</text><text x="2.004" y="58.116" class="k">16</text><text x="17.034" y="58.116" class="m">align:</text><text x="25.05" y="58.116" class="m">TextAlignment::Center,</text><text x="2.004" y="60.287" class="k">17</text><text x="17.034" y="60.287" class="m">text:</text><text x="25.05" y="60.287" class="n">lipsum</text><text x="31.062" y="60.287" class="m">(</text><text x="32.064" y="60.287" style="white-space:pre" fill="#be84ff">16</text><text x="34.068" y="60.287" class="m">),</text><text x="2.004" y="62.458" class="k">18</text><text x="17.034" y="62.458" class="m">styles:</text><text x="25.05" y="62.458" class="m">vec![</text><text x="2.004" y="64.629" class="k">19</text><text x="21.042" y="64.629" class="m">Style::Bold,</text><text x="2.004" y="66.8" class="k">20</text><text x="21.042" y="66.8" class="m">Style::Foreground(color.</text><text x="45.09" y="66.8" class="n">to_string</text><text x="54.108" y="66.8" class="m">()),</text><text x="2.004" y="68.971" class="k">21</text><text x="21.042" y="68.971" class="m">Style::Background(</text><text x="39.078" y="68.971" class="p">&quot;black&quot;</text><text x="46.092" y="68.971" class="m">.</text><text x="47.094" y="68.971" class="n">to_string</text><text x="56.112" y="68.971" class="m">()),</text><text x="2.004" y="71.142" class="k">22</text><text x="17.034" y="71.142" class="m">],</text><text x="2.004" y="73.313" class="k">23</text><text x="13.026" y="73.313" class="m">};</text><text x="2.004" y="75.484" class="k">24</text><text x="2.004" y="77.655" class="k">25</text><text x="13.026" y="77.655" class="m">console.</text><text x="21.042" y="77.655" class="n">render</text><text x="27.054" y="77.655" class="m">(</text><text x="28.056" y="77.655" class="l">&amp;</text><text x="29.058" y="77.655" class="m">component)</text><text x="39.078" y="77.655" class="l">?</text><text x="40.08" y="77.655" class="m">;</text><text x="2.004" y="79.826" class="k">26</text><text x="9.018" y="79.826" class="m">}</text><text x="2.004" y="81.997" class="k">27</text><text x="2.004" y="84.168" class="k">28</text><text x="9.018" y="84.168" class="o">Ok</text><text x="11.022" y="84.168" class="m">(())</text><text x="2.004" y="86.339" class="k">29</text><text x="5.01" y="86.339" class="m">}</text></svg></svg></g></svg></svg>