<svg xmlns="http://www.w3.org/2000/svg" xmlns:xlink="http://www.w3.org/1999/xlink" width="800" height="412.49"><rect width="800" height="412.49" rx="0" ry="0" class="a"/><svg height="412.49" viewBox="0 0 80 41.249" width="800" xmlns="http://www.w3.org/2000/svg" xmlns:xlink="http://www.w3.org/1999/xlink"><style>.a{fill:#282d35}.f,.h,.i,.m{fill:#b9c0cb;white-space:pre}.h,.i,.m{fill:#dbab79}.i,.m{fill:#ff0}.m{fill:#a8cc8c;font-weight:700}</style><g font-family="Monaco,Consolas,Menlo,'Bitstream Vera Sans Mono','Powerline Symbols',monospace" font-size="1.67"><defs><symbol id="a"><path fill="transparent" d="M0 0h80v20H0z"/></symbol></defs><path class="a" d="M0 0h80v41.249H0z"/><svg width="80"><svg><use xlink:href="#a"/><path fill="#73bef3" d="M0 0h22v2.171H0z"/><text y="1.67" style="white-space:pre">Background bright_blue</text><text y="3.841" class="f">Blink</text><text x="5.01" y="3.841" class="f">¹</text><text y="6.012" class="f">BlinkFast¹</text><text y="8.183" style="white-space:pre" fill="#b9c0cb" font-weight="700">Bold</text><text y="10.354" class="f">Conceal¹</text><text y="12.525" class="f">Dim¹</text><text x="35.07" y="14.696" class="f">Encircle¹</text><text x="36.072" y="16.867" class="f">Frame¹</text><text x="31.062" y="19.038" class="h">Foreground</text><text x="42.084" y="19.038" class="h">yellow</text><text x="31.062" y="21.209" class="i">Foreground</text><text x="42.084" y="21.209" class="i">#FFFF00</text><text x="27.054" y="23.38" class="i">Foreground</text><text x="38.076" y="23.38" class="i">rgb(255,255,0)</text><text x="36.072" y="25.551" class="f">Italic</text><text x="42.084" y="25.551" class="f">¹</text><text x="38.076" y="27.722" class="f">None</text><text x="70.14" y="29.893" class="f">Overline¹</text><path fill="#b9c0cb" d="M72.144 30.394h7v2.171h-7z"/><text x="72.144" y="32.064" style="white-space:pre" fill="#282d35">Reverse</text><text x="72.144" y="34.235" class="f">Strike¹</text><text x="70.14" y="36.406" style="white-space:pre" fill="#b9c0cb" text-decoration="underline">Underline</text><text x="65.13" y="38.577" class="f">UnderlineMore¹</text><text y="40.748" class="m">¹</text><text x="2.004" y="40.748" class="m">Only</text><text x="7.014" y="40.748" class="m">supported</text><text x="17.034" y="40.748" class="m">in</text><text x="20.04" y="40.748" class="m">some</text><text x="25.05" y="40.748" class="m">terminals</text></svg></svg></g></svg></svg>